<svg version="1.0" xmlns="http://www.w3.org/2000/svg" width="40" height="40" viewBox="0 0 30 30"><path d="M9.5 1.4C-.7 5.8-2.7 18.6 5.5 25.9c6.4 5.6 14.7 5 20.4-1.4 5.3-6.1 5-14.3-.7-19.8C20.4.1 15-1 9.5 1.4zm13.3 8.8c-.1 5.2-.2 5.2-.5 1-.4-3.6-.7-4.1-1.8-3.2-.8.7-1.2 1.7-.9 2.2.3.5-.2 1.8-1.2 2.9-1.6 1.8-1.6 2-.1 3.7 2.3 2.5 2.1 5.9-.4 7.2-2.3 1.3-7 .5-8.1-1.3-.8-1.3.8-4.7 2.4-4.7.7 0 .6.6-.2 1.6-1.9 2.2.9 4.9 4.4 4 3.1-.8 3.4-3.1.6-4.8-1.1-.7-2-1.6-2-2 0-1.4-5.1-5.8-6.7-5.8-1.3 0-1-.7 1.2-3 2.5-2.6 3.6-3 8.2-3H23l-.2 5.2z"/><path d="M12.7 9.2c-.6 1.9 1.1 4.8 2.9 4.8 2 0 2.9-2.7 1.4-4.5-1.5-1.8-3.7-1.9-4.3-.3z"/></svg>