<svg version="1.0" xmlns="http://www.w3.org/2000/svg" width="666.667" height="666.667" viewBox="0 0 500 500"><path d="M224.5 3.1C211.1 4.5 188 9.4 175 13.6c-37.2 11.8-69.9 31.5-98.3 59.3C37.4 111.2 13 159.1 4.3 215c-2.5 16.2-2.5 53.9 0 70 8.6 55 32.6 103 70.7 140.8 40.2 40 91.1 64.4 148.5 71.1 13.3 1.6 43.5 1.3 57.2-.4C383.4 483.1 466 409.9 491 310.1c5.5-22.4 6.5-31.2 6.5-60.1 0-29.4-1-38-7-61.5-8.8-34.2-25.4-67.1-47.9-95.1C404.6 46.2 347.8 14 286 4.5c-12.7-2-48.7-2.8-61.5-1.4zM395 86.9c0 1.3-2.9 4.4-8.2 8.5-8.9 7.1-9.9 14.2-4.2 30.7l3.7 10.4-.6 15.5c-.4 9.7 0 23.6 1 37 .8 11.8 1.3 28.7 1.1 37.5-.6 22.2-2.6 26.5-12.2 26.5-5.9 0-9.7-2-11.3-5.9-2.3-5.4-3.1-23-2.1-46 .5-11.3 1-31 1.1-43.6l.2-23 3.3-7.7c3.4-8 4.4-16.8 1.9-16.8-1.7 0-10.4 5.9-21.8 14.9-5.2 4.2-12.9 10.2-17.1 13.5-10.2 7.8-10.7 9-8.4 17.4 7.8 28.3 8 30.7 4.1 43-4.1 13.1-9.8 20.5-25 32.4-12.8 10-17.2 17.2-16.3 26.5 1 10 6.9 17.3 24 29.5 14.7 10.5 20.9 16.6 25.2 24.7 9.8 18.6 10.1 44 .9 61.4-4.3 8.2-18.3 21.4-27.8 26.3-41 21.3-98.7 18.2-132-7.1-12.7-9.7-18.6-19.8-19.3-33-.5-9.3 1.7-17.3 7.3-26.6 15.2-24.9 42.8-37.7 87.3-40.5 10.3-.6 11.2-.8 9.8-2.3-3.2-3.5-7.9-15.5-8.9-22.4-.8-6.2-.7-8 1-12.8l1.9-5.6-10.3-.7c-39.1-2.5-61.3-22.3-67.3-59.8l-1.3-7.8-34.5-.2-34.6-.3 48.5-42c26.6-23.1 51-44.4 54.3-47.3l5.9-5.2h90.3c52.1 0 90.4.4 90.4.9z"/><path d="M234.7 128.1c-8.5 2-16.8 8-21 15.2-6.1 10.3-8.6 23.8-6.7 36.1 3.8 24.9 18.5 46.8 38.5 57.3 5.8 3.1 8.2 3.7 14.8 4.1 7.2.4 8.2.2 14.3-2.8 17.3-8.5 26.3-33.5 20.8-58.3-.8-4-3.8-11.9-6.6-17.6-4.3-9-6.1-11.5-13.6-19-13.7-13.6-26.4-18.3-40.5-15zM239.8 302.5c-23.3 3.9-41.4 14.7-48.2 28.8-1.5 3-3.2 8.7-3.8 12.6-3.7 24.7 12.8 44.9 43.7 53.3 11.5 3.1 35.5 3.1 46.9 0 29-8 43.5-26.6 39.8-51-1.6-10.3-5.3-17.4-12.6-24.7-7.4-7.3-14.9-11.8-25.8-15.6-14.6-4.9-25.3-5.9-40-3.4z"/></svg>